<svg width="37" height="37" viewBox="0 0 37 37" fill="none" xmlns="http://www.w3.org/2000/svg">
<path d="M23.125 3.08334C25.9871 3.08334 28.732 4.22032 30.7558 6.24415C32.7797 8.26798 33.9166 11.0129 33.9166 13.875C33.9166 18.0529 31.5425 21.6604 28.0891 23.4642C27.0535 25.4402 25.4402 27.0536 23.4641 28.0892C22.5519 29.8448 21.1754 31.3166 19.4846 32.3441C17.7938 33.3716 15.8535 33.9156 13.875 33.9167C11.0129 33.9167 8.26795 32.7797 6.24412 30.7559C4.22029 28.732 3.08331 25.9871 3.08331 23.125C3.08331 18.9471 5.45748 15.3396 8.91081 13.5358C9.94643 11.5598 11.5598 9.94646 13.5358 8.91084C14.4481 7.15517 15.8245 5.68344 17.5153 4.65592C19.2061 3.62839 21.1464 3.08446 23.125 3.08334ZM18.5 29.2917C15.6379 29.2917 12.8929 28.1547 10.8691 26.1309C8.84529 24.107 7.70831 21.3621 7.70831 18.5C6.73706 19.795 6.16665 21.3829 6.16665 23.125C6.16665 25.1694 6.97877 27.13 8.42436 28.5756C9.86996 30.0212 11.8306 30.8333 13.875 30.8333C15.6171 30.8333 17.205 30.2629 18.5 29.2917ZM23.125 24.6667C20.2629 24.6667 17.5179 23.5297 15.4941 21.5059C13.4703 19.482 12.3333 16.7371 12.3333 13.875C11.3621 15.17 10.7916 16.7579 10.7916 18.5C10.7916 20.5444 11.6038 22.505 13.0494 23.9506C14.495 25.3962 16.4556 26.2083 18.5 26.2083C20.2421 26.2083 21.83 25.6379 23.125 24.6667ZM23.125 6.16668C21.3829 6.16668 19.795 6.73709 18.5 7.70834C21.3621 7.70834 24.107 8.84532 26.1308 10.8691C28.1547 12.893 29.2916 15.6379 29.2916 18.5C30.2629 17.205 30.8333 15.6171 30.8333 13.875C30.8333 11.8306 30.0212 9.86999 28.5756 8.4244C27.13 6.9788 25.1694 6.16668 23.125 6.16668ZM15.4166 13.875C15.4166 15.9194 16.2288 17.88 17.6744 19.3256C19.12 20.7712 21.0806 21.5833 23.125 21.5833C24.05 21.5833 24.9287 21.4292 25.7458 21.1208C26.0541 20.3038 26.2083 19.425 26.2083 18.5C26.2083 16.4556 25.3962 14.495 23.9506 13.0494C22.505 11.6038 20.5444 10.7917 18.5 10.7917C17.575 10.7917 16.6962 10.9458 15.8791 11.2542C15.5708 12.0713 15.4166 12.95 15.4166 13.875Z" fill="#0057FF"/>
</svg>
